<mxfile host="app.diagrams.net" modified="2024-05-10T01:55:25.294Z" agent="Mozilla/5.0 (X11; Linux x86_64) AppleWebKit/537.36 (KHTML, like Gecko) Chrome/123.0.0.0 Safari/537.36" etag="JZrtYhgwgI3TDrH3N58A" version="24.3.0" type="device">
  <diagram name="페이지-1" id="y1aOUJvCByD4pAWbIIMl">
    <mxGraphModel dx="4129" dy="1442" grid="1" gridSize="10" guides="1" tooltips="1" connect="1" arrows="1" fold="1" page="1" pageScale="1" pageWidth="827" pageHeight="1169" math="0" shadow="0">
      <root>
        <mxCell id="0" />
        <mxCell id="1" parent="0" />
        <mxCell id="XMAGu1JeTt9888l_LXFV-1" value="학생정보" style="rounded=0;whiteSpace=wrap;html=1;" vertex="1" parent="1">
          <mxGeometry x="380" y="200" width="120" height="60" as="geometry" />
        </mxCell>
        <mxCell id="XMAGu1JeTt9888l_LXFV-2" value="교수정보" style="rounded=0;whiteSpace=wrap;html=1;" vertex="1" parent="1">
          <mxGeometry x="970" y="320" width="120" height="60" as="geometry" />
        </mxCell>
        <mxCell id="XMAGu1JeTt9888l_LXFV-3" value="수강정보" style="rounded=0;whiteSpace=wrap;html=1;" vertex="1" parent="1">
          <mxGeometry x="470" y="570" width="120" height="60" as="geometry" />
        </mxCell>
        <mxCell id="XMAGu1JeTt9888l_LXFV-5" value="이름" style="ellipse;whiteSpace=wrap;html=1;" vertex="1" parent="1">
          <mxGeometry x="80" y="40" width="120" height="80" as="geometry" />
        </mxCell>
        <mxCell id="XMAGu1JeTt9888l_LXFV-6" value="전공" style="ellipse;whiteSpace=wrap;html=1;" vertex="1" parent="1">
          <mxGeometry x="520" y="40" width="120" height="80" as="geometry" />
        </mxCell>
        <mxCell id="XMAGu1JeTt9888l_LXFV-7" value="성별" style="ellipse;whiteSpace=wrap;html=1;" vertex="1" parent="1">
          <mxGeometry x="230" y="40" width="120" height="80" as="geometry" />
        </mxCell>
        <mxCell id="XMAGu1JeTt9888l_LXFV-8" value="학년" style="ellipse;whiteSpace=wrap;html=1;" vertex="1" parent="1">
          <mxGeometry x="660" y="40" width="120" height="80" as="geometry" />
        </mxCell>
        <mxCell id="XMAGu1JeTt9888l_LXFV-9" value="나이" style="ellipse;whiteSpace=wrap;html=1;" vertex="1" parent="1">
          <mxGeometry x="380" y="40" width="120" height="80" as="geometry" />
        </mxCell>
        <mxCell id="XMAGu1JeTt9888l_LXFV-10" value="기숙사여부" style="ellipse;whiteSpace=wrap;html=1;" vertex="1" parent="1">
          <mxGeometry x="810" y="40" width="120" height="80" as="geometry" />
        </mxCell>
        <mxCell id="XMAGu1JeTt9888l_LXFV-15" value="교수실 번호" style="ellipse;whiteSpace=wrap;html=1;" vertex="1" parent="1">
          <mxGeometry x="1210" y="560" width="120" height="80" as="geometry" />
        </mxCell>
        <mxCell id="XMAGu1JeTt9888l_LXFV-16" value="전공" style="ellipse;whiteSpace=wrap;html=1;" vertex="1" parent="1">
          <mxGeometry x="1210" y="440" width="120" height="80" as="geometry" />
        </mxCell>
        <mxCell id="XMAGu1JeTt9888l_LXFV-17" value="이름" style="ellipse;whiteSpace=wrap;html=1;" vertex="1" parent="1">
          <mxGeometry x="1210" y="170" width="120" height="80" as="geometry" />
        </mxCell>
        <mxCell id="XMAGu1JeTt9888l_LXFV-18" value="성별&lt;span style=&quot;white-space: pre;&quot;&gt;&#x9;&lt;/span&gt;" style="ellipse;whiteSpace=wrap;html=1;" vertex="1" parent="1">
          <mxGeometry x="1210" y="260" width="120" height="80" as="geometry" />
        </mxCell>
        <mxCell id="XMAGu1JeTt9888l_LXFV-19" value="나이" style="ellipse;whiteSpace=wrap;html=1;" vertex="1" parent="1">
          <mxGeometry x="1210" y="350" width="120" height="80" as="geometry" />
        </mxCell>
        <mxCell id="XMAGu1JeTt9888l_LXFV-22" value="수업시간" style="ellipse;whiteSpace=wrap;html=1;" vertex="1" parent="1">
          <mxGeometry x="770" y="690" width="120" height="80" as="geometry" />
        </mxCell>
        <mxCell id="XMAGu1JeTt9888l_LXFV-23" value="교실" style="ellipse;whiteSpace=wrap;html=1;" vertex="1" parent="1">
          <mxGeometry x="610" y="690" width="120" height="80" as="geometry" />
        </mxCell>
        <mxCell id="XMAGu1JeTt9888l_LXFV-24" value="수강명" style="ellipse;whiteSpace=wrap;html=1;" vertex="1" parent="1">
          <mxGeometry x="180" y="690" width="120" height="80" as="geometry" />
        </mxCell>
        <mxCell id="XMAGu1JeTt9888l_LXFV-25" value="수강학생" style="ellipse;whiteSpace=wrap;html=1;" vertex="1" parent="1">
          <mxGeometry x="320" y="690" width="120" height="80" as="geometry" />
        </mxCell>
        <mxCell id="XMAGu1JeTt9888l_LXFV-26" value="교수정보" style="ellipse;whiteSpace=wrap;html=1;" vertex="1" parent="1">
          <mxGeometry x="470" y="690" width="120" height="80" as="geometry" />
        </mxCell>
        <mxCell id="XMAGu1JeTt9888l_LXFV-27" value="" style="endArrow=none;html=1;rounded=0;" edge="1" parent="1">
          <mxGeometry width="50" height="50" relative="1" as="geometry">
            <mxPoint x="100" y="660" as="sourcePoint" />
            <mxPoint x="830" y="660" as="targetPoint" />
            <Array as="points">
              <mxPoint x="520" y="660" />
            </Array>
          </mxGeometry>
        </mxCell>
        <mxCell id="XMAGu1JeTt9888l_LXFV-28" value="" style="endArrow=none;html=1;rounded=0;" edge="1" parent="1">
          <mxGeometry width="50" height="50" relative="1" as="geometry">
            <mxPoint x="239.5" y="660" as="sourcePoint" />
            <mxPoint x="239.5" y="660" as="targetPoint" />
            <Array as="points">
              <mxPoint x="239.5" y="690" />
            </Array>
          </mxGeometry>
        </mxCell>
        <mxCell id="XMAGu1JeTt9888l_LXFV-32" value="" style="endArrow=none;html=1;rounded=0;" edge="1" parent="1">
          <mxGeometry width="50" height="50" relative="1" as="geometry">
            <mxPoint x="529.8299999999999" y="660" as="sourcePoint" />
            <mxPoint x="529.8299999999999" y="660" as="targetPoint" />
            <Array as="points">
              <mxPoint x="529.8299999999999" y="690" />
            </Array>
          </mxGeometry>
        </mxCell>
        <mxCell id="XMAGu1JeTt9888l_LXFV-33" value="" style="endArrow=none;html=1;rounded=0;" edge="1" parent="1">
          <mxGeometry width="50" height="50" relative="1" as="geometry">
            <mxPoint x="380" y="660" as="sourcePoint" />
            <mxPoint x="380" y="660" as="targetPoint" />
            <Array as="points">
              <mxPoint x="380" y="690" />
            </Array>
          </mxGeometry>
        </mxCell>
        <mxCell id="XMAGu1JeTt9888l_LXFV-34" value="" style="endArrow=none;html=1;rounded=0;" edge="1" parent="1">
          <mxGeometry width="50" height="50" relative="1" as="geometry">
            <mxPoint x="669.8299999999999" y="660" as="sourcePoint" />
            <mxPoint x="669.8299999999999" y="660" as="targetPoint" />
            <Array as="points">
              <mxPoint x="669.8299999999999" y="690" />
            </Array>
          </mxGeometry>
        </mxCell>
        <mxCell id="XMAGu1JeTt9888l_LXFV-35" value="" style="endArrow=none;html=1;rounded=0;" edge="1" parent="1">
          <mxGeometry width="50" height="50" relative="1" as="geometry">
            <mxPoint x="826.9999999999999" y="660" as="sourcePoint" />
            <mxPoint x="826.9999999999999" y="660" as="targetPoint" />
            <Array as="points">
              <mxPoint x="826.9999999999999" y="690" />
            </Array>
          </mxGeometry>
        </mxCell>
        <mxCell id="XMAGu1JeTt9888l_LXFV-36" value="" style="endArrow=none;html=1;rounded=0;" edge="1" parent="1">
          <mxGeometry width="50" height="50" relative="1" as="geometry">
            <mxPoint x="529.67" y="630" as="sourcePoint" />
            <mxPoint x="529.67" y="630" as="targetPoint" />
            <Array as="points">
              <mxPoint x="529.67" y="660" />
            </Array>
          </mxGeometry>
        </mxCell>
        <mxCell id="XMAGu1JeTt9888l_LXFV-38" value="" style="endArrow=none;html=1;rounded=0;" edge="1" parent="1">
          <mxGeometry width="50" height="50" relative="1" as="geometry">
            <mxPoint y="160" as="sourcePoint" />
            <mxPoint x="870" y="160" as="targetPoint" />
          </mxGeometry>
        </mxCell>
        <mxCell id="XMAGu1JeTt9888l_LXFV-39" value="" style="endArrow=none;html=1;rounded=0;" edge="1" parent="1">
          <mxGeometry width="50" height="50" relative="1" as="geometry">
            <mxPoint x="139.7" y="160" as="sourcePoint" />
            <mxPoint x="139.7" y="120" as="targetPoint" />
          </mxGeometry>
        </mxCell>
        <mxCell id="XMAGu1JeTt9888l_LXFV-46" value="" style="endArrow=none;html=1;rounded=0;" edge="1" parent="1">
          <mxGeometry width="50" height="50" relative="1" as="geometry">
            <mxPoint x="289.7" y="160" as="sourcePoint" />
            <mxPoint x="289.7" y="120" as="targetPoint" />
          </mxGeometry>
        </mxCell>
        <mxCell id="XMAGu1JeTt9888l_LXFV-47" value="" style="endArrow=none;html=1;rounded=0;" edge="1" parent="1">
          <mxGeometry width="50" height="50" relative="1" as="geometry">
            <mxPoint x="440" y="160" as="sourcePoint" />
            <mxPoint x="440" y="120" as="targetPoint" />
          </mxGeometry>
        </mxCell>
        <mxCell id="XMAGu1JeTt9888l_LXFV-48" value="" style="endArrow=none;html=1;rounded=0;" edge="1" parent="1">
          <mxGeometry width="50" height="50" relative="1" as="geometry">
            <mxPoint x="579.7" y="160" as="sourcePoint" />
            <mxPoint x="579.7" y="120" as="targetPoint" />
          </mxGeometry>
        </mxCell>
        <mxCell id="XMAGu1JeTt9888l_LXFV-49" value="" style="endArrow=none;html=1;rounded=0;" edge="1" parent="1">
          <mxGeometry width="50" height="50" relative="1" as="geometry">
            <mxPoint x="719.7" y="160" as="sourcePoint" />
            <mxPoint x="719.7" y="120" as="targetPoint" />
          </mxGeometry>
        </mxCell>
        <mxCell id="XMAGu1JeTt9888l_LXFV-50" value="" style="endArrow=none;html=1;rounded=0;" edge="1" parent="1">
          <mxGeometry width="50" height="50" relative="1" as="geometry">
            <mxPoint x="869.7" y="160" as="sourcePoint" />
            <mxPoint x="869.7" y="120" as="targetPoint" />
          </mxGeometry>
        </mxCell>
        <mxCell id="XMAGu1JeTt9888l_LXFV-51" value="&lt;u&gt;ID&lt;/u&gt;" style="ellipse;whiteSpace=wrap;html=1;" vertex="1" parent="1">
          <mxGeometry x="1210" y="80" width="120" height="80" as="geometry" />
        </mxCell>
        <mxCell id="XMAGu1JeTt9888l_LXFV-52" value="&lt;u&gt;ID&lt;/u&gt;" style="ellipse;whiteSpace=wrap;html=1;" vertex="1" parent="1">
          <mxGeometry x="-60" y="40" width="120" height="80" as="geometry" />
        </mxCell>
        <mxCell id="XMAGu1JeTt9888l_LXFV-53" value="id" style="ellipse;whiteSpace=wrap;html=1;" vertex="1" parent="1">
          <mxGeometry x="40" y="690" width="120" height="80" as="geometry" />
        </mxCell>
        <mxCell id="XMAGu1JeTt9888l_LXFV-54" value="" style="endArrow=none;html=1;rounded=0;" edge="1" parent="1">
          <mxGeometry width="50" height="50" relative="1" as="geometry">
            <mxPoint x="99.8" y="660" as="sourcePoint" />
            <mxPoint x="99.8" y="660" as="targetPoint" />
            <Array as="points">
              <mxPoint x="99.8" y="690" />
            </Array>
          </mxGeometry>
        </mxCell>
        <mxCell id="XMAGu1JeTt9888l_LXFV-55" value="" style="endArrow=none;html=1;rounded=0;" edge="1" parent="1">
          <mxGeometry width="50" height="50" relative="1" as="geometry">
            <mxPoint y="160" as="sourcePoint" />
            <mxPoint y="120" as="targetPoint" />
          </mxGeometry>
        </mxCell>
        <mxCell id="XMAGu1JeTt9888l_LXFV-56" value="" style="endArrow=none;html=1;rounded=0;" edge="1" parent="1">
          <mxGeometry width="50" height="50" relative="1" as="geometry">
            <mxPoint x="440" y="200" as="sourcePoint" />
            <mxPoint x="440" y="160" as="targetPoint" />
          </mxGeometry>
        </mxCell>
        <mxCell id="XMAGu1JeTt9888l_LXFV-58" value="" style="endArrow=none;html=1;rounded=0;entryX=0;entryY=0.5;entryDx=0;entryDy=0;exitX=1;exitY=0.5;exitDx=0;exitDy=0;edgeStyle=orthogonalEdgeStyle;" edge="1" parent="1" source="XMAGu1JeTt9888l_LXFV-2" target="XMAGu1JeTt9888l_LXFV-19">
          <mxGeometry width="50" height="50" relative="1" as="geometry">
            <mxPoint x="1159.52" y="391.08" as="sourcePoint" />
            <mxPoint x="1210" y="390" as="targetPoint" />
          </mxGeometry>
        </mxCell>
        <mxCell id="XMAGu1JeTt9888l_LXFV-59" value="" style="endArrow=none;html=1;rounded=0;exitX=1;exitY=0.5;exitDx=0;exitDy=0;edgeStyle=orthogonalEdgeStyle;" edge="1" parent="1" source="XMAGu1JeTt9888l_LXFV-2">
          <mxGeometry width="50" height="50" relative="1" as="geometry">
            <mxPoint x="1159.52" y="490.53999999999996" as="sourcePoint" />
            <mxPoint x="1210" y="480" as="targetPoint" />
            <Array as="points">
              <mxPoint x="1150" y="350" />
              <mxPoint x="1150" y="480" />
            </Array>
          </mxGeometry>
        </mxCell>
        <mxCell id="XMAGu1JeTt9888l_LXFV-60" value="" style="endArrow=none;html=1;rounded=0;exitX=1;exitY=0.5;exitDx=0;exitDy=0;edgeStyle=orthogonalEdgeStyle;" edge="1" parent="1" source="XMAGu1JeTt9888l_LXFV-2">
          <mxGeometry width="50" height="50" relative="1" as="geometry">
            <mxPoint x="1159.52" y="600.54" as="sourcePoint" />
            <mxPoint x="1210" y="600" as="targetPoint" />
            <Array as="points">
              <mxPoint x="1150" y="350" />
              <mxPoint x="1150" y="600" />
            </Array>
          </mxGeometry>
        </mxCell>
        <mxCell id="XMAGu1JeTt9888l_LXFV-61" value="" style="endArrow=none;html=1;rounded=0;exitX=1;exitY=0.5;exitDx=0;exitDy=0;entryX=0;entryY=0.5;entryDx=0;entryDy=0;edgeStyle=orthogonalEdgeStyle;" edge="1" parent="1" source="XMAGu1JeTt9888l_LXFV-2" target="XMAGu1JeTt9888l_LXFV-51">
          <mxGeometry width="50" height="50" relative="1" as="geometry">
            <mxPoint x="1310" y="400" as="sourcePoint" />
            <mxPoint x="1360" y="350" as="targetPoint" />
          </mxGeometry>
        </mxCell>
        <mxCell id="XMAGu1JeTt9888l_LXFV-62" value="" style="endArrow=none;html=1;rounded=0;entryX=0;entryY=0.5;entryDx=0;entryDy=0;edgeStyle=orthogonalEdgeStyle;" edge="1" parent="1" target="XMAGu1JeTt9888l_LXFV-17">
          <mxGeometry width="50" height="50" relative="1" as="geometry">
            <mxPoint x="1090" y="350" as="sourcePoint" />
            <mxPoint x="1360" y="350" as="targetPoint" />
          </mxGeometry>
        </mxCell>
        <mxCell id="XMAGu1JeTt9888l_LXFV-64" value="수강신청" style="rhombus;whiteSpace=wrap;html=1;" vertex="1" parent="1">
          <mxGeometry x="500" y="330" width="310" height="80" as="geometry" />
        </mxCell>
        <mxCell id="XMAGu1JeTt9888l_LXFV-70" value="" style="endArrow=none;html=1;rounded=0;entryX=0.5;entryY=1;entryDx=0;entryDy=0;exitX=0.5;exitY=0;exitDx=0;exitDy=0;" edge="1" parent="1" source="XMAGu1JeTt9888l_LXFV-3" target="XMAGu1JeTt9888l_LXFV-64">
          <mxGeometry width="50" height="50" relative="1" as="geometry">
            <mxPoint x="555" y="480" as="sourcePoint" />
            <mxPoint x="605" y="430" as="targetPoint" />
          </mxGeometry>
        </mxCell>
        <mxCell id="XMAGu1JeTt9888l_LXFV-71" value="" style="endArrow=none;html=1;rounded=0;exitX=0.5;exitY=0;exitDx=0;exitDy=0;entryX=0.5;entryY=1;entryDx=0;entryDy=0;" edge="1" parent="1" source="XMAGu1JeTt9888l_LXFV-64" target="XMAGu1JeTt9888l_LXFV-1">
          <mxGeometry width="50" height="50" relative="1" as="geometry">
            <mxPoint x="620" y="310" as="sourcePoint" />
            <mxPoint x="670" y="260" as="targetPoint" />
          </mxGeometry>
        </mxCell>
        <mxCell id="XMAGu1JeTt9888l_LXFV-72" value="" style="endArrow=none;html=1;rounded=0;entryX=0;entryY=0.5;entryDx=0;entryDy=0;exitX=1;exitY=0.5;exitDx=0;exitDy=0;" edge="1" parent="1" source="XMAGu1JeTt9888l_LXFV-64" target="XMAGu1JeTt9888l_LXFV-2">
          <mxGeometry width="50" height="50" relative="1" as="geometry">
            <mxPoint x="760" y="380" as="sourcePoint" />
            <mxPoint x="750" y="340" as="targetPoint" />
          </mxGeometry>
        </mxCell>
      </root>
    </mxGraphModel>
  </diagram>
</mxfile>
